<svg width="33" height="28" viewBox="0 0 33 28" fill="none" xmlns="http://www.w3.org/2000/svg">
<path d="M12.8206 0.37023L0.740461 12.408C0.26445 12.884 0 13.5293 0 14.2063V17.5383C0 18.2153 0.26445 18.8606 0.740461 19.3366L2.57046 21.156C3.16283 21.7484 4.15716 21.6109 4.5697 20.881L15.3593 1.89346C15.8353 1.04722 15.2323 0 14.2592 0H13.7197C13.3812 0 13.0638 0.137514 12.8206 0.37023Z" fill="white"/>
<path d="M32.1244 12.408L20.0443 0.37023C19.8116 0.137514 19.4837 0 19.1558 0H18.6163C17.6431 0 17.0296 1.04722 17.5162 1.89346L28.3058 20.881C28.7183 21.6109 29.7126 21.7378 30.305 21.156L32.135 19.3366C32.611 18.8606 32.8755 18.2153 32.8755 17.5383V14.2063C32.8755 13.5293 32.611 12.884 32.135 12.408H32.1244Z" fill="white"/>
<path d="M8.69561 27.2592C9.17162 27.7352 9.81688 27.9997 10.4833 27.9997H22.373C23.0394 27.9997 23.6847 27.7352 24.1607 27.2592L26.9321 24.4983C27.736 23.705 27.1648 22.3298 26.033 22.3298H6.8233C5.69146 22.3298 5.13082 23.6944 5.92417 24.4983L8.69561 27.2592Z" fill="white"/>
<path d="M3.74426 22.3308H3.75531L3.74426 22.3198V22.3308Z" fill="white"/>
</svg>
